<svg width="62" height="62" xmlns="http://www.w3.org/2000/svg">

 <g>
  <title>background</title>
  <rect fill="none" id="canvas_background" height="62" width="62" y="-1" x="-1"/>
 </g>
 <g>
  <title>Layer 1</title>
  <g id="svg_1">
   <g id="svg_2">
    <path id="svg_3" d="m245.333,0c-72.405,0 -149.333,22.421 -149.333,64l0,192c0,42.027 75.115,64 149.333,64s149.333,-21.973 149.333,-64l0,-192c0.001,-41.579 -76.927,-64 -149.333,-64zm128,256c0,20.181 -52.565,42.667 -128,42.667s-128,-22.485 -128,-42.667l0,-29.909c27.883,19.584 78.933,29.909 128,29.909s100.117,-10.325 128,-29.909l0,29.909zm0,-64c0,17.813 -48.704,42.667 -128,42.667s-128,-24.853 -128,-42.667l0,-29.909c27.883,19.584 78.933,29.909 128,29.909s100.117,-10.325 128,-29.909l0,29.909zm0,-64c0,17.813 -48.704,42.667 -128,42.667s-128,-24.853 -128,-42.667l0,-29.909c27.883,19.584 78.933,29.909 128,29.909s100.117,-10.325 128,-29.909l0,29.909zm-128,-21.333c-79.296,0 -128,-24.853 -128,-42.667c0,-17.813 48.704,-42.667 128,-42.667s128,24.853 128,42.667c0,17.813 -48.704,42.667 -128,42.667z"/>
   </g>
  </g>
  <g id="svg_4">
   <g id="svg_5">
    <path id="svg_6" d="m248.661,384.405l-3.157,-0.533c-18.709,-3.051 -21.504,-7.915 -21.504,-10.539c0,-4.245 8.512,-10.667 21.355,-10.667c12.608,0 20.928,5.995 21.355,10.304c0.555,5.867 5.739,10.389 11.627,9.6c5.867,-0.555 10.155,-5.76 9.6,-11.627c-1.621,-16.896 -19.925,-29.632 -42.603,-29.632c-23.936,0 -42.688,14.059 -42.688,32c0,16.704 13.248,27.328 39.403,31.595l1.728,-10.517l1.429,11.051c17.728,2.923 21.44,7.36 21.44,10.56c0,4.245 -8.512,10.667 -21.355,10.667c-12.608,0 -20.928,-6.016 -21.355,-10.325c-0.555,-5.867 -5.611,-10.24 -11.627,-9.6c-5.867,0.555 -10.155,5.76 -9.6,11.627c1.622,16.895 19.926,29.631 42.603,29.631c23.936,0 42.688,-14.059 42.688,-32c0,-16.683 -13.227,-27.307 -39.339,-31.595z"/>
   </g>
  </g>
  <g id="svg_7">
   <g id="svg_8">
    <path id="svg_9" d="m394.667,373.333c0,-17.643 -14.357,-32 -32,-32l-21.333,0c-17.643,0 -32,14.357 -32,32l0,42.667c0,17.643 14.357,32 32,32l21.333,0c4.928,0 9.536,-1.216 13.696,-3.2l0.085,0.085c2.091,2.069 4.821,3.115 7.552,3.115s5.461,-1.045 7.531,-3.115c4.16,-4.16 4.16,-10.923 0,-15.083l-0.085,-0.085c2.005,-4.16 3.221,-8.789 3.221,-13.717l0,-42.667zm-21.334,38.272l-3.136,-3.136c-4.16,-4.16 -10.923,-4.16 -15.083,0c-4.16,4.16 -4.16,10.923 0,15.083l3.115,3.115l-16.896,0c-5.888,0 -10.667,-4.779 -10.667,-10.667l0,-42.667c0,-5.888 4.779,-10.667 10.667,-10.667l21.333,0c5.888,0 10.667,4.779 10.667,10.667l0,38.272z"/>
   </g>
  </g>
  <g id="svg_10">
   <g id="svg_11">
    <path id="svg_12" d="m469.333,426.667l-32,0l0,-74.667c0,-5.888 -4.779,-10.667 -10.667,-10.667c-5.888,0 -10.667,4.779 -10.667,10.667l0,85.333c0,5.888 4.779,10.667 10.667,10.667l42.667,0c5.888,0 10.667,-4.779 10.667,-10.667c0,-5.888 -4.779,-10.666 -10.667,-10.666z"/>
   </g>
  </g>
  <g id="svg_13">
   <g id="svg_14">
    <path id="svg_15" d="m175.445,385.109c-5.291,-2.624 -11.669,-0.491 -14.315,4.779l-11.797,23.616l-11.797,-23.595c-2.645,-5.269 -9.045,-7.403 -14.315,-4.779c-5.269,2.645 -7.424,9.045 -4.779,14.315l18.965,37.909l-18.944,37.867c-2.624,5.269 -0.491,11.669 4.779,14.315c1.536,0.768 3.157,1.131 4.757,1.131c3.904,0 7.659,-2.155 9.557,-5.909l42.667,-85.333c2.625,-5.27 0.492,-11.67 -4.778,-14.316z"/>
   </g>
  </g>
  <g id="svg_16">
   <g id="svg_17">
    <path id="svg_18" d="m88.704,341.888c-4.331,-1.472 -9.152,0.043 -11.904,3.712l-23.467,31.275l-23.466,-31.275c-2.752,-3.669 -7.509,-5.184 -11.904,-3.712c-4.352,1.451 -7.296,5.525 -7.296,10.112l0,85.333c0,5.888 4.779,10.667 10.667,10.667s10.666,-4.779 10.666,-10.667l0,-53.333l12.8,17.067c4.032,5.376 13.056,5.376 17.067,0l12.8,-17.067l0,53.333c0,5.888 4.779,10.667 10.667,10.667s10.666,-4.779 10.666,-10.667l0,-85.333c0,-4.587 -2.944,-8.661 -7.296,-10.112z"/>
   </g>
  </g>
  <g id="svg_19"/>
  <g id="svg_20"/>
  <g id="svg_21"/>
  <g id="svg_22"/>
  <g id="svg_23"/>
  <g id="svg_24"/>
  <g id="svg_25"/>
  <g id="svg_26"/>
  <g id="svg_27"/>
  <g id="svg_28"/>
  <g id="svg_29"/>
  <g id="svg_30"/>
  <g id="svg_31"/>
  <g id="svg_32"/>
  <g id="svg_33"/>
 </g>
</svg>