<!-- Generated by IcoMoon.io -->
<svg version="1.1" xmlns="http://www.w3.org/2000/svg" width="50" height="50" viewBox="0 0 512 512">
<title></title>
<g id="icomoon-ignore">
</g>
<path fill="#212121" d="M119.216 234.543c-3.041 13.844-16.729 22.601-30.573 19.56s-22.6-16.729-19.559-30.572v0c3.041-13.844 16.729-22.601 30.573-19.56s22.6 16.729 19.559 30.572v0z"></path>
<path fill="#212121" d="M157.107 328.192c-5.369-5.266-31.826-34.917-37.222-41.072-5.338-6.088-6.601-8.406-7.914-14.512-0.645-3-0.614-4.857 0.159-9.408 1.702-10.026 6.181-17.206 14.701-23.564l4.801-3.583-0.596-36.649c-0.328-20.157-0.378-38.378-0.112-40.491 0.579-4.589 1.952-7.163 5.024-9.423 5.19-3.816 12.649-3.883 17.106-0.153 4.239 3.548 4.964 8.277 5.624 36.702 0.898 38.703-3.752 42.677 1.818 40.513 8-3.107 15.031-10.763 25.047-26.745 11.507-18.364 15.71-23.735 19.761-25.255 6.619-2.483 14.696 1.049 17.193 7.52 1.215 3.148 0.681 8.268-1.291 12.388-2.516 5.254-22.741 37.683-25.765 41.31-2.465 2.958-5.181 4.957-16.367 12.049-7.376 4.677-13.501 8.915-13.613 9.42-0.266 1.209 4.517 7.075 13.219 16.218 9.239 9.707 17.689 19.020 17.506 19.85-8.069 6.611-31.498 42.279-39.078 34.885z"></path>
<path fill="#212121" d="M313.524 411.272c-4.185-1.899-7.797-4.69-24.722-19.099-9.373-7.98-20.116-17.096-23.875-20.259l-6.833-5.75-15.875-4.103c-44.398-11.474-57.4-15.188-65.697-18.767-3.41-1.471-12.065-9.635-11.92-10.293 0.053-0.238 6.933-0.971 12.255-6.687 24.374-22.63 38.478-54.141 63.222-76.055 3.141-2.688 4.446-3.075 10.194-3.024 10.842 0.099 47.717 4.163 57.574 6.349 7.249 1.607 14.839 3.094 17.55 7.13 5.34 7.95 4.438 18.12-3.881 22.976-5.374 3.137-14.997 4.007-38.588 1.267-21.142-2.455-23.394-2.337-28.241 1.488-3.444 2.717-25.736 30.988-26.238 33.274-0.188 0.856 3.747 2.897 8.901 4.616 3.058 1.021 11.649 3.601 19.092 5.735 13.711 3.93 19.197 5.822 22.565 7.78 2.264 1.317 44.611 38.055 49.439 42.892 4.8 4.808 7.766 9.324 8.25 12.562 0.625 4.172-1.528 11.41-4.191 14.094-5.19 5.23-12.642 6.75-18.983 3.872z"></path>
<path fill="#212121" d="M149.536 380.288c-3.394-6.51-9.875-27.146-9.664-29.175s11.083-6.618 16.091-8.041c6.106-1.7 8.018-1.565 9.751 0.69 2.714 3.531 9.535 21.606 10.142 26.877 0.221 1.922 0.045 2.291-1.607 3.361-10.309 4.934-22.149 11.143-24.713 6.289z"></path>
<path fill="#212121" d="M435.272 72.542c-10.856-3.405-346.875 0-346.875 0s-9.323 4.495-10.762 9.934c-1.439 5.439 1.735 12.586 5.795 18.213s9.503 12.362 18.213 13.246c8.71 0.883 20.502-4.124 27.32 0.828s10.672 19.652 17.385 24.836c6.714 5.184 61.482 26.1 68.713 30.631s62.632 19.034 69.541 22.352c6.909 3.319 26.755 7.071 33.942 16.558s16.476 27.088 19.041 37.254c2.565 10.166-6.656 42.051 1.656 56.295s33.849 23.536 46.351 38.203c12.502 14.666 19.259 36.211 24.017 51.206s-0.749 31.077 6.623 37.254c7.372 6.177 18.355 7.706 19.869 0s0.397-263.627-0.828-356.81z"></path>
</svg>
